<?xml version="1.0" encoding="utf-8"?>
<!-- Generator: Adobe Illustrator 26.0.1, SVG Export Plug-In . SVG Version: 6.00 Build 0)  -->
<svg version="1.1" id="Layer_1" xmlns="http://www.w3.org/2000/svg" xmlns:xlink="http://www.w3.org/1999/xlink" x="0px" y="0px"
	 viewBox="0 0 1024 1024" style="enable-background:new 0 0 1024 1024;" xml:space="preserve">
<style type="text/css">
	.st0{fill:#D74488;}
	.st1{filter:url(#shadow);}
	.st2{fill:#FFFFFF;}
	.st3{fill:none;stroke:#FFE5E5;stroke-width:20;}
	.st4{fill:#FFFFFF;stroke:#FF8E53;stroke-miterlimit:10;}
	.st5{opacity:0.9;fill:#BC0A2A;stroke:#79303D;stroke-miterlimit:10;enable-background:new    ;}
	.st6{opacity:0.8;fill:#4CAF50;enable-background:new    ;}
	.st7{fill:#8B4513;}
	.st8{opacity:0.8;fill:#FFA726;enable-background:new    ;}
	.st9{fill:none;stroke:#FFFFFF;stroke-width:2;}
</style>
<filter  height="200%" id="shadow" width="200%" x="-50%" y="-50%">
	<feDropShadow  dx="0" dy="4" flood-opacity="0.3" stdDeviation="8"></feDropShadow>
</filter>
<path class="st0" d="M180,0h664c99.4,0,180,80.6,180,180v664c0,99.4-80.6,180-180,180H180C80.6,1024,0,943.4,0,844V180
	C0,80.6,80.6,0,180,0z"/>
<g class="st1">
	<circle class="st2" cx="447" cy="474.1" r="320"/>
</g>
<circle class="st3" cx="512" cy="512" r="320"/>
<g transform="translate(340, 380)">
	<path class="st2" d="M45,0L45,0c5.5,0,10,4.5,10,10v260c0,5.5-4.5,10-10,10l0,0c-5.5,0-10-4.5-10-10V10C35,4.5,39.5,0,45,0z"/>
	<path class="st2" d="M17.5,0L17.5,0C21.6,0,25,3.4,25,7.5v105c0,4.1-3.4,7.5-7.5,7.5l0,0c-4.1,0-7.5-3.4-7.5-7.5V7.5
		C10,3.4,13.4,0,17.5,0z"/>
	<path class="st2" d="M67.5,0L67.5,0C71.6,0,75,3.4,75,7.5v105c0,4.1-3.4,7.5-7.5,7.5l0,0c-4.1,0-7.5-3.4-7.5-7.5V7.5
		C60,3.4,63.4,0,67.5,0z"/>
</g>
<g transform="translate(590, 380)">
	<path class="st4" d="M35,80L35,80c5.5,0,10,4.5,10,10v180c0,5.5-4.5,10-10,10l0,0c-5.5,0-10-4.5-10-10V90C25,84.5,29.5,80,35,80z"
		/>
	<ellipse class="st4" cx="35" cy="50" rx="35" ry="50"/>
</g>
<g transform="translate(512, 480)">
	<path class="st5" d="M0-20c-10-10-25-10-35,0s-10,25,0,35L0,50l35-35c10-10,10-25,0-35S10-30,0-20z"/>
</g>
<ellipse class="st6" cx="429.5" cy="286.9" rx="34.5" ry="31.9"/>
<path class="st7" d="M429.5,261.5L429.5,261.5c1.1,0,2,0.9,2,2v11c0,1.1-0.9,2-2,2l0,0c-1.1,0-2-0.9-2-2v-11
	C427.5,262.4,428.4,261.5,429.5,261.5z"/>
<ellipse class="st8" cx="599" cy="286.9" rx="30" ry="31.9"/>
<line class="st9" x1="600" y1="255" x2="600" y2="318.9"/>
<line class="st9" x1="573" y1="286.9" x2="633" y2="286.9"/>
</svg>
